<svg xmlns="http://www.w3.org/2000/svg" viewBox="0 0 2140.42 550.27"><defs
  ><style>.cls-1{fill:#fdfdfd;}.cls-2{fill:#f1ba1e;}</style></defs><g
    id="Horizontal"
  ><g id="DVC_Horizontal_Logo_Text" data-name="DVC Horizontal Logo Text"><g
        id="DVC_Text"
        data-name="DVC Text"
      ><path
          class="cls-1"
          d="M923.72,309.52c-.46-2.5.81-4.21,1.51-6Q955,227,984.81,150.57c1.27-3.27,2.73-4.51,6.38-4.47,23.14.24,46.28.05,69.43.31,10.66.12,21.28,1.21,31.45,4.82,13,4.62,18.42,12.83,17.92,26.61a63.48,63.48,0,0,1-3.51,18.57q-12.27,35.35-27.14,69.71c-11.75,27.31-32.85,40.11-61.83,42.18-28.62,2-57.25.79-85.87,1.22C929,309.56,926.35,309.52,923.72,309.52Zm57.9-37.15c11.24-.26,21.85.48,32.44-.64,11.15-1.18,19.55-6.85,24.38-16.78a411.51,411.51,0,0,0,21.37-54.19c3.25-10.13-.49-14.91-11.06-16.6-9.27-1.48-18.61-.39-27.9-.87-3.31-.17-4.87.78-6.12,4.05-8.78,23-17.84,45.84-26.8,68.74C985.88,261.3,983.87,266.54,981.62,272.37Z"
        /><path
          class="cls-1"
          d="M1816.16,146.19c.19,2.44-1.27,3.77-2.15,5.27q-44.91,77-89.83,153.91c-1.82,3.13-3.75,4.28-7.41,4.25q-36.72-.27-73.44,0c-3.66,0-4.83-.43-4-4.56q15.4-77.6,30.4-155.26c.57-2.94,1.77-3.69,4.61-3.65,11.33.15,22.66.3,34,0,4.61-.15,4.6,1.58,3.82,5.11-8.71,39.31-17.27,78.65-26,117.93-.87,3.9-.39,4.71,3.82,5.11,7.33.71,11-2.05,14.47-8.51,20.43-38.31,41.47-76.3,62.07-114.53,2.15-4,4.51-5.2,8.86-5.1C1788.9,146.37,1802.51,146.19,1816.16,146.19Z"
        /><path
          class="cls-1"
          d="M2047.8,282.27c-3.59,3.1-6.24,5.52-9,7.78-13.66,11.06-28.44,19.71-46.41,21.47a43.68,43.68,0,0,1-6.47.18c-15.84-.84-23.56-9.07-23.5-24.92a62.52,62.52,0,0,1,3.23-19.13,374.32,374.32,0,0,1,20.65-51.31,109.78,109.78,0,0,1,9.79-15.64c13.72-18.77,32.39-25,54.83-21.93a79.6,79.6,0,0,1,31.72,11.33c2.55,1.59,4.16,1.66,5.44-1.15,3.24-7.14,8.62-9.25,16.37-8.52,8.37.78,16.87.17,26,.17-4.33,11.23-8.42,21.89-12.55,32.53-11.9,30.7-23.88,61.36-35.65,92.11-1.29,3.38-2.91,4.48-6.46,4.38-9.15-.27-18.32-.2-27.47,0-2.92.05-3.68-.76-3.27-3.67C2046.07,298.42,2046.81,290.89,2047.8,282.27Zm-2.14-70.49c-7.57-.67-12.62,4-16.2,10.39-8.12,14.6-13.51,30.33-18.44,46.22-.67,2.17-1.51,4.78.7,6.51s4.53.61,6.58-.53c21.69-12,38.11-29.24,50.25-50.72.84-1.49,1.22-2.6-.66-3.66C2061.07,216.17,2054.49,211.8,2045.66,211.78Z"
        /><path
          class="cls-1"
          d="M1152.18,311.74c-10.2.08-20.28-.66-29.94-4.33-17-6.46-25.6-20-21.5-37.76,5.06-21.9,13.06-42.94,25.52-61.87a58.68,58.68,0,0,1,29.36-23.08c20.29-7.47,41.26-9.24,62.34-4.59,24.34,5.37,34.73,22.77,27.79,46.64A241,241,0,0,1,1227,273.39c-13.39,25-35.68,35.56-62.87,37.78-3.14.26-6.3.39-9.46.56C1153.84,311.77,1153,311.74,1152.18,311.74Zm35.62-100c-13.16,0-20.83,3.07-25.08,11.89a339.71,339.71,0,0,0-17,43.63c-1.64,5.07.22,8.45,5.26,9.42,19.81,3.8,31.2-.79,37.49-17.2,3.8-9.93,7.76-19.81,11.65-29.72C1205.69,215.63,1203.08,211.82,1187.8,211.78Z"
        /><path
          class="cls-1"
          d="M1565.75,272c-4,10.36-7.69,20-11.37,29.59a4,4,0,0,1-3,2.91c-22.62,5.21-45.38,9.49-68.71,6.54-20.12-2.54-29.69-14.83-28.29-35.13a62.57,62.57,0,0,1,3.62-17q7-19.47,15.32-38.45c11.79-27.12,32.82-40.54,61.94-42,11.31-.56,22.66-1,33.79,1.84,11.85,3,22.28,8.23,25.27,21.27,3.2,14-.4,26.42-11.38,36.18-7.87,7-17.36,11.06-27.12,14.53-16.68,5.91-33.93,9.6-51.27,12.81-3.33.61-5.07,1.74-5.24,5.25s1,6.13,4.73,7.12c4.28,1.15,8.61.67,12.91.33,14.45-1.11,28.79-3.16,43.12-5.25C1561.7,272.32,1563.34,272.26,1565.75,272Zm-54.23-34.88c9.28-.75,29.21-7.4,36-11.79a15.68,15.68,0,0,0,5.64-5.54c2.37-4.36,1-7.51-3.9-8.42a51.52,51.52,0,0,0-13.93-.45c-8.42.71-14.38,4.76-17.82,12.45C1515.5,227.81,1513.64,232.25,1511.52,237.16Z"
        /><path
          class="cls-1"
          d="M1407.54,247.77c4-10.36,7.47-19.87,11.32-29.22,1.24-3,.46-4.05-2.33-5a36.89,36.89,0,0,0-20.65-1.15,17.23,17.23,0,0,0-12.34,10,459.8,459.8,0,0,0-17.18,44.13c-2.71,8.38.35,12,9.17,11.74,16.35-.42,32.44-3.21,48.59-5.52,1.79-.26,3.58-.49,5.49-.74.71,1.55-.1,2.69-.52,3.84-1.81,5-3.67,10-5.51,15-5,13.61-5,13.67-19.22,16.12-13.78,2.38-27.61,4.44-41.61,5.05a64.3,64.3,0,0,1-14.41-1.08c-21.07-3.82-32-18.7-27.17-40.42,5.26-23.57,14-46.18,27.73-66.34,8.71-12.79,21.27-20.5,36.35-23.72,25-5.33,49.27-2.56,73,6.72,4.12,1.62,5.47,3.18,3.49,7.88-6.47,15.31-12.39,30.86-18.37,46.38-1.09,2.84-2.55,4.13-5.7,4.29C1427.86,246.23,1418.1,247,1407.54,247.77Z"
        /><path
          class="cls-1"
          d="M1961.48,151.08c-3.48,8.91-6.57,17.31-10,25.55-1.49,3.52-.53,4.13,2.88,4,7-.19,14,0,21-.1,3-.06,3.33.79,2.26,3.44q-5.58,13.88-10.74,27.92c-.94,2.59-2.43,3.06-4.86,3-7.32-.13-14.65,0-22-.1-2.53-.05-3.82.75-4.75,3.21-6.18,16.15-12.54,32.22-18.78,48.35a21.06,21.06,0,0,0-1.33,5.29c-.52,4.54,1.26,6.63,5.85,6.59,7.31,0,14.47-1.67,22.61-2.68-4.14,10.52-8.06,20.46-12,30.4-.53,1.33-1.76,1.43-2.88,1.63-12.12,2.18-24.22,4.56-36.6,4.58-18.5,0-27.88-10.92-25.36-29.28a77.89,77.89,0,0,1,4.82-17.77c6-15.34,11.83-30.72,18-46,1.56-3.85.53-4.54-3.11-4.34-4,.22-8,0-12,.07-2.08,0-2.7-.71-1.93-2.68q5.79-14.88,11.52-29.77a2.69,2.69,0,0,1,3.08-1.86c1,0,2,.05,3,0,4.79-.27,10.63,1.88,14.08-.84,3.18-2.5,3.82-8.19,5.65-12.45,2.27-5.32,2.56-12.82,7-15.49,4.19-2.51,11-.71,16.64-.73C1942.67,151.06,1951.79,151.08,1961.48,151.08Z"
        /><path
          class="cls-1"
          d="M1259.9,309.53h-17c-5.63,0-5.63,0-3.66-5q22.9-58.76,45.82-117.5c4.84-12.39,9.73-24.75,14.49-37.16.91-2.4,1.87-3.76,4.87-3.71q19,.3,37.94,0c3.77-.06,3.58,1.17,2.46,4q-30.54,78-60.88,156.08c-1,2.69-2.4,3.45-5.11,3.37C1272.55,309.41,1266.22,309.53,1259.9,309.53Z"
        /><path
          class="cls-1"
          d="M1794.65,309.53c-6,0-12-.23-18,.07-4,.21-4.21-1-2.87-4.37,10.1-25.49,20-51.05,30-76.59,5.81-14.85,11.7-29.68,17.37-44.59,1-2.76,2.38-3.72,5.35-3.68q18.72.27,37.44,0c3.55-.05,3.76.87,2.56,3.91q-24,61-47.73,122.1c-.94,2.44-2.13,3.28-4.7,3.2C1807.63,309.41,1801.14,309.53,1794.65,309.53Z"
        /><path
          class="cls-1"
          d="M1751.82,393c-7.94,0-15.24-.18-22.52.08-3.31.11-4.52-.9-4.1-4.15a21.64,21.64,0,0,0,0-4.48c-.16-1.9.48-2.62,2.49-2.61q18.46.12,36.93,0c2.17,0,2.85.71,2.84,2.88-.06,9.14,0,18.29.14,27.43,0,2.2-.39,3.19-2.95,3.34-9.71.56-9.7.67-10-9,0-1.4-.15-2.8-.31-5.61-8.8,16.24-22.17,17.48-36.68,14-14.15-3.38-22.6-14.54-23.36-29.33-.77-15.18,6.52-27,20.32-32.06a47.55,47.55,0,0,1,35.56.69c7.4,3.07,12.73,8.29,15.39,16,.85,2.47,1,4.14-2.29,4.29a14.53,14.53,0,0,0-3.92.74c-5,1.67-9,1.67-11-4.5-.83-2.51-3.5-4-6.11-4.82a34.4,34.4,0,0,0-23.91.68,12.26,12.26,0,0,0-7.37,8.32,30.85,30.85,0,0,0,.46,18.65,10.17,10.17,0,0,0,6.16,6.81c10,3.56,19.86,3.59,29.37-1.63C1749,397.6,1749.63,396.62,1751.82,393Z"
        /><path
          class="cls-1"
          d="M1617.84,372c0,12.59-.18,25.19.1,37.78.1,4.34-.77,6-5.56,5.79-9.42-.42-9.44-.12-9.44-9.35,0-16.8.1-33.6-.07-50.4,0-3.47,1-4.05,4.39-4.56,11.34-1.72,18.84,2.17,24.61,12.3,5.57,9.77,12.93,18.53,19.52,27.72.71,1,1.55,1.91,3,3.67,0-13.31.28-25.54-.13-37.75-.16-5,1.37-6.09,6.08-5.89,9.13.4,9.15.11,9.15,9.17,0,17-.1,33.93.08,50.9,0,3.34-1.08,3.79-4.16,4.2-10.77,1.44-18.14-1.78-23.84-11.78-6.44-11.3-14.88-21.46-22.45-32.12Z"
        /><path
          class="cls-1"
          d="M1261.26,416.3a42.32,42.32,0,0,1-9.44-1.09c-16.61-3.7-26.31-15.69-26.11-32.35.2-16.49,9.9-28.05,26.62-31.32,8.78-1.72,17.56-1.62,26.1,1.52a27.2,27.2,0,0,1,15.85,15c1.09,2.43.78,3.7-2.09,4a25.09,25.09,0,0,0-5.37,1.09c-4,1.37-7.35,1.35-8.68-3.64a2.41,2.41,0,0,0-.9-1.18c-8.2-6.34-17.35-4.68-26.24-2.51-7.06,1.71-9.07,7.58-9.51,14.22-1.12,17,4.27,22.71,21.49,22.62,7,0,13.92-.42,16.79-8.59.5-1.44,1.45-1.57,2.76-1.25,1.94.46,3.91.82,5.86,1.21,7.95,1.61,8.16,1.93,3.75,8.73C1285.21,413.44,1274.65,416.39,1261.26,416.3Z"
        /><path
          class="cls-1"
          d="M1425.59,416.36A45.75,45.75,0,0,1,1413.7,415c-15.68-3.81-25.26-15.92-25.13-31.69.13-16.34,9.2-27.74,25.25-31.43,9.25-2.13,18.51-2.09,27.55,1.21A27,27,0,0,1,1457,367.66c1.44,3,.76,4.21-2.44,4.51a20.76,20.76,0,0,0-4.88,1c-4.06,1.4-7.28,1.35-8.72-3.67a5.51,5.51,0,0,0-3.6-3.29c-9-3.15-18-3.07-26.66,1.06-2.8,1.33-4.44,4-5.27,7a34.19,34.19,0,0,0-.05,18.23c1.52,5.7,5.71,8.39,11.12,9.42a49.22,49.22,0,0,0,15.42.41c4.82-.62,8.69-2.64,10.38-7.37.87-2.44,2.17-2.43,4.17-1.93a70.3,70.3,0,0,0,8.79,1.81c3.17.37,2.86,1.82,1.87,4-4.74,10.68-13.45,15.64-24.56,17.13C1430.26,416.3,1427.91,416.25,1425.59,416.36Z"
        /><path
          class="cls-1"
          d="M1342.74,378.58c5-7.9,9.83-15.22,14.2-22.83,2-3.56,4.52-4.75,8.41-4.41,3.46.29,7,.06,10.38.06.79,1.78-.59,2.65-1.26,3.66-7.1,10.65-14.19,21.3-21.46,31.83a14.72,14.72,0,0,0-3.06,9.67c.28,4.8.07,9.64.07,14.46,0,.66-.06,1.33,0,2,.27,3.14-2.13,2.69-3.68,2.32-3.63-.87-8.11,2.57-10.93-2.09a3.44,3.44,0,0,1,0-2c2.16-14-2.37-25.8-11.24-36.63-5.65-6.9-10.1-14.79-15.73-23.18,5.94,0,11.12-.09,16.29.05,1.73,0,2.2,1.88,3,3.09C1332.62,362.43,1337.53,370.29,1342.74,378.58Z"
        /><path
          class="cls-1"
          d="M1485.29,383.11c0-9.31.12-18.62-.08-27.93-.07-3.13.92-3.86,4-3.86,11.24,0,11.24-.15,11.24,11,0,11.8.11,23.61-.07,35.41,0,3.08.77,4,3.86,3.88,8.65-.21,17.3,0,26-.13,2.82-.06,3.63.78,3.67,3.62.14,10.28.26,10.28-9.87,10.28-11.48,0-23-.16-34.43.1-3.63.08-4.39-1.07-4.3-4.46C1485.44,401.74,1485.29,392.42,1485.29,383.11Z"
        /><path
          class="cls-1"
          d="M1881.29,146.2c-2.92,7.56-5.6,14.51-8.28,21.47a2.53,2.53,0,0,1-2.6,1.85c-14.26,0-28.51,0-43.41,0,2.94-7.59,5.66-14.52,8.3-21.48a2.46,2.46,0,0,1,2.59-1.83Z"
        /><path
          class="cls-1"
          d="M1574.43,383.32c0,9.49-.1,19,.06,28.46,0,2.77-.69,3.65-3.57,3.71-12.05.25-12.05.36-12.05-11.72,0-16,.09-32-.08-47.94,0-3.42.81-4.55,4.4-4.52,11.24.09,11.24-.07,11.24,11Z"
        /></g><g id="DVC_Logo" data-name="DVC Logo"><path
          class="cls-2"
          d="M437.64,540.27c-56-.13-111.81-3.69-167.56-8.45-55.42-4.74-110.66-11-165.8-18.36-19.42-2.6-36.88-8.49-50.76-22.92a72.69,72.69,0,0,1-18.25-32.23c-15.38-58-24.59-116.91-25.23-177C9.34,216.65,18.51,153.17,35.78,91,44.31,60.29,66,42.61,97.53,38c71.37-10.38,143.09-17.69,215-22.86,49.16-3.53,98.39-6,147.71-4.93,52.62,1.1,105.1,4.64,157.51,9.34q69.42,6.23,138.5,15.31c8.74,1.17,17.54,2.12,26.18,3.84C812.1,44.63,832,62.15,840.23,91.1c13.56,47.69,21.21,96.5,24.48,146,5,75.2-4.74,148.88-24.28,221.34-8.3,30.78-29.57,49.09-61.06,53.71-73.83,10.83-148,18.31-222.48,23.44C517.19,538.29,477.45,540.21,437.64,540.27Zm-1.78-21.14c37.76-.17,73-1.62,108.24-4q112.92-7.51,225-22.84c29.91-4.07,45.11-16.34,52.11-43.7,19.48-76.19,28.75-153.32,20.55-232C837.56,176,831,135.78,819.68,96.5c-5.89-20.51-20-33.44-41.16-36.82-46.2-7.4-92.75-12.19-139.31-16.74-43.25-4.22-86.57-7.55-130-9.75A1400.12,1400.12,0,0,0,366,33.25c-46.23,2.38-92.36,6-138.42,10.59-42.75,4.23-85.44,9-127.92,15.34-23,3.45-38.16,16.9-44.05,39.44C35.48,175.35,25.88,253.1,34,332.48c4.16,40.64,10.82,80.81,21.84,120.18,5.93,21.2,20.15,34.06,41.79,38.14,10.78,2,21.73,3.2,32.62,4.61q71.58,9.29,143.51,15.33C328.53,515.41,383.35,518.79,435.86,519.13Z"
        /><path
          class="cls-2"
          d="M512.86,289c-1.8,1.3-2.08,3.37-2.87,5.09-9.39,20.4-17.62,41.34-28.32,61.13-7.94,14.7-16.93,28.67-29.22,40.22-13.6,12.78-29.63,19.34-48.38,19.27-23.81-.08-47.63-.14-71.44.09-4.3,0-5.18-1.26-5.12-5.3.24-15.76.1-31.53.1-47.21-1.76-.63-2,.69-2.55,1.34-24.48,30-56.71,45.7-94.65,49.85-26.7,2.92-53.58.67-80.37,1.24-2.42.06-3.12-.81-3.11-3.16q.09-39,0-77.91c0-3.55,2.12-3,4.24-3,19.82,0,39.65.39,59.45-.12,20.61-.54,36.09-10.39,44.81-29.07s6.24-36.8-6.6-52.95c-9.79-12.32-23.05-18.39-38.76-18.54-19.49-.19-39-.14-58.45,0-3.69,0-4.76-.86-4.73-4.66.18-25.14.09-50.28.09-75.42,0-2.12-.52-4.32,3-4.25,25.79.53,51.65-1.37,77.38,1.06,39.29,3.72,72.7,19.34,97.91,50.56a8.78,8.78,0,0,1,.87,1.69c2.1-1.4,1.41-2.86,1.41-4,.06-14.65.17-29.3-.05-44-.06-4,.7-5.42,5.08-5.37q32.72.36,65.45,0c4.17,0,5.2,1.1,5.19,5.23q-.21,87.15-.09,174.31c0,6,1,6.64,6.52,4,3.87-1.88,6.57-5.06,8.91-8.54,4.78-7.07,8.17-14.85,11.42-22.7Q460.54,224,491,150.2c1.41-3.44,3.07-4.67,6.87-4.64q36.47.3,72.94,0c4.62,0,4.92,1.19,3.11,5-3.37,7-6.39,14.21-9.5,21.21,1.12,1.21,1.76.33,2.33-.06,26-18.18,55.27-25.67,86.64-26,10.32-.11,20.65.07,31-.07,2.79,0,3.73.78,3.72,3.65q-.14,38.44,0,76.91c0,3.34-1.34,3.69-4.12,3.74-12.31.21-24.67-1.06-36.92.64-27.29,3.78-47.1,28.71-44,55.05,3.39,29.1,27.36,49.27,55.52,47.33,14.68-1,25.85-8,35.24-18.51,4.31-4.84,8.28-10,12.19-15.17,1.55-2.05,2.67-2.24,4.78-.78q31.51,22,63.16,43.88c1.59,1.1,3,1.84,1.28,4.2-18.11,25.44-39,47.62-68.41,60.28-45.46,19.6-127.29,14.78-169.63-46.5-13.86-20.05-21.29-42.38-23.41-66.57C513.62,292.19,514.14,290.45,512.86,289Z"
        /></g></g></g></svg>
