<svg xmlns="http://www.w3.org/2000/svg" viewBox="0 0 875.99 875.99"><defs><style
    >.cls-1{fill:#f1ba1e;}.cls-2{fill:#0b2562;}</style></defs><g
    id="Horizontal"
  ><g id="DVC_Logo_Maskable" data-name="DVC Logo Maskable"><g
        id="DVC_Logo_Maskable-2"
        data-name="DVC Logo Maskable"
      ><path
          class="cls-1"
          d="M862,394.05c-3.27-49.47-10.91-98.28-24.48-146-8.23-28.95-28.13-46.46-57.77-52.36-8.64-1.72-17.44-2.67-26.19-3.84Q684.46,182.68,615,176.56c-52.42-4.7-104.9-8.24-157.52-9.34-49.32-1-98.54,1.4-147.71,4.93-71.92,5.17-143.64,12.48-215,22.86-31.52,4.58-53.23,22.26-61.75,53C15.77,310.15,6.61,373.63,7.3,438.31c.65,60.07,9.86,119,25.24,177a72.67,72.67,0,0,0,18.24,32.23c13.89,14.43,31.35,20.32,50.77,22.92,55.13,7.37,110.38,13.62,165.79,18.36,55.75,4.76,111.57,8.32,167.56,8.45,39.82-.06,79.55-2,119.26-4.72,74.44-5.12,148.65-12.61,222.47-23.44,31.5-4.62,52.76-22.92,61.06-53.71C857.23,542.93,866.94,469.25,862,394.05ZM818.51,605.6c-7,27.36-22.19,39.63-52.1,43.7q-112.14,15.26-225,22.84c-35.22,2.35-70.48,3.8-108.24,4-52.52-.34-107.34-3.72-162.09-8.39q-71.93-6.12-143.51-15.33c-10.89-1.41-21.85-2.58-32.63-4.61C73.26,643.7,59,630.84,53.11,609.63c-11-39.36-17.67-79.54-21.83-120.18-8.13-79.37,1.47-157.12,21.55-233.86,5.9-22.53,21-36,44.06-39.43,42.47-6.38,85.17-11.11,127.91-15.34,46.06-4.56,92.19-8.22,138.43-10.6a1403,1403,0,0,1,143.27-.05q65.1,3.3,130,9.75c46.56,4.55,93.11,9.34,139.31,16.74C796.91,220,811.05,233,817,253.48c11.3,39.28,17.88,79.49,22.11,120.12C847.27,452.28,838,529.41,818.51,605.6Z"
        /><path
          class="cls-2"
          d="M818.51,605.6c-7,27.36-22.19,39.63-52.1,43.7q-112.14,15.26-225,22.84c-35.22,2.35-70.48,3.8-108.24,4-52.52-.34-107.34-3.72-162.09-8.39q-71.93-6.12-143.51-15.33c-10.89-1.41-21.85-2.58-32.63-4.61C73.26,643.7,59,630.84,53.11,609.63c-11-39.36-17.67-79.54-21.83-120.18-8.13-79.37,1.47-157.12,21.55-233.86,5.9-22.53,21-36,44.06-39.43,42.47-6.38,85.17-11.11,127.91-15.34,46.06-4.56,92.19-8.22,138.43-10.6a1403,1403,0,0,1,143.27-.05q65.1,3.3,130,9.75c46.56,4.55,93.11,9.34,139.31,16.74C796.91,220,811.05,233,817,253.48c11.3,39.28,17.88,79.49,22.11,120.12C847.27,452.28,838,529.41,818.51,605.6Z"
        /><path
          class="cls-1"
          d="M510.12,445.92c-1.8,1.31-2.08,3.37-2.87,5.09-9.38,20.41-17.62,41.35-28.31,61.14-7.95,14.7-16.94,28.66-29.23,40.22-13.6,12.77-29.63,19.34-48.38,19.27-23.81-.09-47.63-.14-71.44.09-4.3,0-5.18-1.26-5.12-5.3.24-15.77.1-31.54.1-47.22-1.76-.63-2,.7-2.54,1.35-24.49,30-56.72,45.69-94.66,49.85-26.69,2.92-53.58.66-80.37,1.24-2.41.05-3.12-.82-3.11-3.16q.09-39,0-77.92c0-3.55,2.12-3,4.24-3,19.82,0,39.65.4,59.45-.12,20.61-.54,36.09-10.38,44.81-29.07s6.24-36.79-6.6-52.95c-9.79-12.31-23-18.38-38.76-18.54-19.48-.19-39-.14-58.45,0-3.69,0-4.75-.86-4.73-4.65.18-25.14.1-50.28.1-75.42,0-2.12-.53-4.32,3-4.25,25.79.53,51.66-1.37,77.38,1.06,39.29,3.71,72.71,19.33,97.91,50.56a7.94,7.94,0,0,1,.87,1.68c2.1-1.39,1.41-2.85,1.42-4.05.05-14.65.17-29.3-.06-43.95-.06-4,.7-5.41,5.08-5.36q32.73.36,65.45,0c4.17-.05,5.2,1.1,5.19,5.22q-.21,87.17-.09,174.31c0,6,1,6.64,6.52,4,3.88-1.89,6.57-5.07,8.92-8.54,4.77-7.07,8.17-14.86,11.41-22.71q30.56-73.79,61-147.62c1.41-3.44,3.08-4.66,6.87-4.63q36.48.29,72.94,0c4.62,0,4.93,1.18,3.11,5-3.37,7-6.38,14.2-9.5,21.21,1.13,1.2,1.77.33,2.33-.07,26-18.18,55.27-25.66,86.64-26,10.32-.11,20.65.06,31-.08,2.8,0,3.73.78,3.72,3.65q-.14,38.46,0,76.92c0,3.34-1.34,3.69-4.12,3.74-12.31.2-24.68-1.06-36.92.63-27.3,3.78-47.1,28.72-44,55.06,3.38,29.09,27.35,49.27,55.52,47.33,14.67-1,25.84-8,35.23-18.51,4.31-4.84,8.29-10,12.19-15.17,1.55-2.06,2.68-2.25,4.78-.78q31.53,22,63.17,43.88c1.59,1.1,3,1.83,1.27,4.2-18.11,25.44-39,47.61-68.41,60.28-45.46,19.6-127.29,14.77-169.63-46.5-13.85-20.06-21.29-42.38-23.4-66.58C510.88,449.17,511.41,447.43,510.12,445.92Z"
        /></g></g></g></svg>
